<svg width="24" height="24" viewBox="0 0 24 24" fill="none" xmlns="http://www.w3.org/2000/svg">
<path d="M12 9.74995C10.2051 9.74995 8.75 11.205 8.75 13C8.75 14.7949 10.2051 16.25 12 16.25C13.7949 16.25 15.25 14.7949 15.25 13C15.25 11.205 13.7949 9.74995 12 9.74995Z" fill="#4E4A4A"/>
<path fill-rule="evenodd" clip-rule="evenodd" d="M15.6501 2.24105C13.5685 0.390678 10.4315 0.390678 8.34986 2.24105L8.1341 2.43283C7.54195 2.9592 6.77721 3.24995 5.98493 3.24995C3.3699 3.24995 1.25 5.36985 1.25 7.98488V13.0452C1.24999 14.8817 1.24999 16.3213 1.37373 17.4635C1.50001 18.629 1.76232 19.5734 2.34815 20.3797C2.70281 20.8679 3.13209 21.2971 3.62024 21.6518C4.42656 22.2376 5.37094 22.4999 6.53648 22.6262C7.67859 22.75 9.11817 22.75 10.9547 22.7499H13.0453C14.8818 22.75 16.3214 22.75 17.4635 22.6262C18.6291 22.4999 19.5734 22.2376 20.3798 21.6518C20.8679 21.2971 21.2972 20.8679 21.6518 20.3797C22.2377 19.5734 22.5 18.629 22.6263 17.4635C22.75 16.3214 22.75 14.8818 22.75 13.0453V7.98488C22.75 5.36985 20.6301 3.24995 18.0151 3.24995C17.2228 3.24995 16.4581 2.9592 15.8659 2.43283L15.6501 2.24105ZM7.25 13C7.25 10.3766 9.37665 8.24995 12 8.24995C14.6234 8.24995 16.75 10.3766 16.75 13C16.75 15.6233 14.6234 17.75 12 17.75C9.37665 17.75 7.25 15.6233 7.25 13ZM18 9C17.4477 9 17 8.55228 17 8C17 7.44772 17.4477 7 18 7C18.5523 7 19 7.44772 19 8C19 8.55228 18.5523 9 18 9Z" fill="#4E4A4A"/>
</svg>
