<svg width="20" height="20" viewBox="0 0 20 20" fill="none" xmlns="http://www.w3.org/2000/svg">
<path d="M18.3383 7.31387L4.33904 0.314252C3.78656 0.0392759 3.16272 -0.0586174 2.55257 0.0339188C1.94242 0.126455 1.37566 0.404917 0.929552 0.83134C0.483448 1.25776 0.179714 1.81139 0.0597603 2.41675C-0.0601932 3.0221 0.00947168 3.64972 0.259257 4.21404L2.65913 9.58375C2.71358 9.71357 2.74163 9.85294 2.74163 9.99373C2.74163 10.1345 2.71358 10.2739 2.65913 10.4037L0.259257 15.7734C0.0559679 16.2301 -0.0299718 16.7303 0.00924744 17.2287C0.0484667 17.727 0.211602 18.2077 0.483826 18.627C0.756051 19.0462 1.12874 19.3908 1.56801 19.6294C2.00728 19.868 2.49922 19.9931 2.99911 19.9932C3.46731 19.9885 3.92855 19.8792 4.34903 19.6732L18.3483 12.6736C18.8448 12.4238 19.2622 12.0409 19.5539 11.5677C19.8456 11.0945 20 10.5496 20 9.99373C20 9.43786 19.8456 8.89293 19.5539 8.41973C19.2622 7.94653 18.8448 7.56367 18.3483 7.31387H18.3383ZM17.4483 10.8837L3.44908 17.8833C3.26526 17.9716 3.05884 18.0015 2.8575 17.9691C2.65617 17.9368 2.46955 17.8436 2.32266 17.7022C2.17577 17.5607 2.07564 17.3777 2.03569 17.1778C1.99574 16.9778 2.01789 16.7704 2.09916 16.5834L4.48903 11.2137C4.51996 11.142 4.54668 11.0685 4.56902 10.9937H11.4586C11.7238 10.9937 11.9782 10.8883 12.1657 10.7008C12.3532 10.5133 12.4586 10.2589 12.4586 9.99373C12.4586 9.72852 12.3532 9.47418 12.1657 9.28666C11.9782 9.09913 11.7238 8.99378 11.4586 8.99378H4.56902C4.54668 8.91895 4.51996 8.8455 4.48903 8.77379L2.09916 3.40408C2.01789 3.21706 1.99574 3.00965 2.03569 2.80968C2.07564 2.60972 2.17577 2.42674 2.32266 2.28529C2.46955 2.14384 2.65617 2.05069 2.8575 2.01831C3.05884 1.98594 3.26526 2.01589 3.44908 2.10415L17.4483 9.10377C17.6121 9.18769 17.7496 9.31518 17.8456 9.4722C17.9415 9.62922 17.9923 9.80969 17.9923 9.99373C17.9923 10.1778 17.9415 10.3582 17.8456 10.5153C17.7496 10.6723 17.6121 10.7998 17.4483 10.8837Z" fill="#6C757D"/>
</svg>
