<svg width="18" height="18" viewBox="0 0 18 18" fill="none" xmlns="http://www.w3.org/2000/svg">
<path d="M14.9891 15.0205L10.424 10.4555C11.1324 9.53965 11.5156 8.41992 11.5156 7.24219C11.5156 5.83242 10.9654 4.51055 9.97051 3.51387C8.97559 2.51719 7.6502 1.96875 6.24219 1.96875C4.83418 1.96875 3.50879 2.51895 2.51387 3.51387C1.51719 4.50879 0.96875 5.83242 0.96875 7.24219C0.96875 8.6502 1.51895 9.97559 2.51387 10.9705C3.50879 11.9672 4.83242 12.5156 6.24219 12.5156C7.41992 12.5156 8.53789 12.1324 9.45371 11.4258L14.0188 15.9891C14.0321 16.0025 14.048 16.0131 14.0655 16.0203C14.083 16.0276 14.1018 16.0313 14.1207 16.0313C14.1396 16.0313 14.1584 16.0276 14.1759 16.0203C14.1934 16.0131 14.2093 16.0025 14.2227 15.9891L14.9891 15.2244C15.0025 15.211 15.0131 15.1951 15.0203 15.1776C15.0276 15.1601 15.0313 15.1414 15.0313 15.1225C15.0313 15.1035 15.0276 15.0848 15.0203 15.0673C15.0131 15.0498 15.0025 15.0339 14.9891 15.0205V15.0205ZM9.02656 10.0266C8.28125 10.7701 7.29336 11.1797 6.24219 11.1797C5.19102 11.1797 4.20313 10.7701 3.45781 10.0266C2.71426 9.28125 2.30469 8.29336 2.30469 7.24219C2.30469 6.19102 2.71426 5.20137 3.45781 4.45781C4.20313 3.71426 5.19102 3.30469 6.24219 3.30469C7.29336 3.30469 8.28301 3.7125 9.02656 4.45781C9.77012 5.20313 10.1797 6.19102 10.1797 7.24219C10.1797 8.29336 9.77012 9.28301 9.02656 10.0266Z" fill="#BDBDBD"/>
</svg>
