<svg width="30" height="30" viewBox="0 0 30 30" fill="none" xmlns="http://www.w3.org/2000/svg">
<path d="M20.0329 15.5901C21.4505 14.4748 22.4853 12.9453 22.9931 11.2145C23.501 9.48374 23.4568 7.63768 22.8667 5.93318C22.2766 4.22869 21.1698 2.75051 19.7004 1.7043C18.2311 0.658098 16.4722 0.0958862 14.6684 0.0958862C12.8646 0.0958862 11.1057 0.658098 9.63635 1.7043C8.16698 2.75051 7.06024 4.22869 6.4701 5.93318C5.87995 7.63768 5.83575 9.48374 6.34365 11.2145C6.85154 12.9453 7.88627 14.4748 9.30388 15.5901C6.87477 16.5633 4.75529 18.1774 3.1714 20.2604C1.5875 22.3434 0.598552 24.8172 0.309991 27.4181C0.289104 27.6079 0.305822 27.8001 0.359191 27.9835C0.41256 28.1669 0.501534 28.3381 0.621034 28.4871C0.862376 28.7881 1.2134 28.9809 1.5969 29.0231C1.98039 29.0653 2.36493 28.9534 2.66593 28.712C2.96693 28.4707 3.15973 28.1197 3.20192 27.7362C3.51943 24.9096 4.86721 22.2991 6.98776 20.4034C9.10831 18.5077 11.853 17.4598 14.6973 17.4598C17.5417 17.4598 20.2863 18.5077 22.4069 20.4034C24.5274 22.2991 25.8752 24.9096 26.1927 27.7362C26.232 28.0915 26.4016 28.4196 26.6686 28.6573C26.9356 28.8949 27.2812 29.0252 27.6387 29.0231H27.7977C28.1768 28.9795 28.5232 28.7878 28.7616 28.4899C28.9999 28.1919 29.1108 27.8119 29.0702 27.4325C28.7803 24.8243 27.786 22.3442 26.1939 20.2579C24.6019 18.1717 22.4721 16.5581 20.0329 15.5901ZM14.6684 14.5635C13.5245 14.5635 12.4062 14.2242 11.4551 13.5887C10.5039 12.9532 9.76258 12.0499 9.32482 10.993C8.88705 9.93613 8.77251 8.77319 8.99568 7.65123C9.21885 6.52928 9.76971 5.49869 10.5786 4.68981C11.3875 3.88092 12.4181 3.33006 13.54 3.10689C14.662 2.88372 15.8249 2.99826 16.8818 3.43603C17.9386 3.87379 18.842 4.61512 19.4775 5.56627C20.113 6.51742 20.4522 7.63567 20.4522 8.77961C20.4522 10.3136 19.8429 11.7847 18.7582 12.8694C17.6735 13.9541 16.2024 14.5635 14.6684 14.5635Z" fill="#757575"/>
</svg>
